<mxfile host="app.diagrams.net" modified="2023-07-19T09:05:58.339Z" agent="Mozilla/5.0 (Windows NT 10.0; Win64; x64) AppleWebKit/537.36 (KHTML, like Gecko) Chrome/114.0.0.0 Safari/537.36 Edg/114.0.1823.82" etag="nJ9mlZbdh2BwRdKHhH3s" version="21.6.3" type="github">
  <diagram name="第 1 页" id="sQPqQytMK_SmGpIGzYuH">
    <mxGraphModel dx="588" dy="778" grid="1" gridSize="10" guides="1" tooltips="1" connect="1" arrows="1" fold="1" page="1" pageScale="1" pageWidth="827" pageHeight="1169" math="0" shadow="0">
      <root>
        <mxCell id="0" />
        <mxCell id="1" parent="0" />
        <mxCell id="5cXX5zXWG6Wzpbm8b1YB-3" value="" style="edgeStyle=orthogonalEdgeStyle;rounded=0;orthogonalLoop=1;jettySize=auto;html=1;" edge="1" parent="1" source="5cXX5zXWG6Wzpbm8b1YB-1" target="5cXX5zXWG6Wzpbm8b1YB-2">
          <mxGeometry relative="1" as="geometry" />
        </mxCell>
        <mxCell id="5cXX5zXWG6Wzpbm8b1YB-1" value="程序启动" style="strokeWidth=2;html=1;shape=mxgraph.flowchart.start_2;whiteSpace=wrap;" vertex="1" parent="1">
          <mxGeometry x="330" y="40" width="100" height="100" as="geometry" />
        </mxCell>
        <mxCell id="5cXX5zXWG6Wzpbm8b1YB-7" value="" style="edgeStyle=orthogonalEdgeStyle;rounded=0;orthogonalLoop=1;jettySize=auto;html=1;" edge="1" parent="1" source="5cXX5zXWG6Wzpbm8b1YB-2" target="5cXX5zXWG6Wzpbm8b1YB-4">
          <mxGeometry relative="1" as="geometry" />
        </mxCell>
        <mxCell id="5cXX5zXWG6Wzpbm8b1YB-2" value="打开串口" style="rounded=1;whiteSpace=wrap;html=1;absoluteArcSize=1;arcSize=14;strokeWidth=2;" vertex="1" parent="1">
          <mxGeometry x="330" y="170" width="100" height="40" as="geometry" />
        </mxCell>
        <mxCell id="5cXX5zXWG6Wzpbm8b1YB-5" style="edgeStyle=orthogonalEdgeStyle;rounded=0;orthogonalLoop=1;jettySize=auto;html=1;entryX=0;entryY=0.5;entryDx=0;entryDy=0;" edge="1" parent="1" source="5cXX5zXWG6Wzpbm8b1YB-4" target="5cXX5zXWG6Wzpbm8b1YB-2">
          <mxGeometry relative="1" as="geometry">
            <Array as="points">
              <mxPoint x="260" y="285" />
              <mxPoint x="260" y="190" />
            </Array>
          </mxGeometry>
        </mxCell>
        <mxCell id="5cXX5zXWG6Wzpbm8b1YB-6" value="No" style="edgeLabel;html=1;align=center;verticalAlign=middle;resizable=0;points=[];" vertex="1" connectable="0" parent="5cXX5zXWG6Wzpbm8b1YB-5">
          <mxGeometry x="-0.6681" y="-2" relative="1" as="geometry">
            <mxPoint as="offset" />
          </mxGeometry>
        </mxCell>
        <mxCell id="5cXX5zXWG6Wzpbm8b1YB-9" value="" style="edgeStyle=orthogonalEdgeStyle;rounded=0;orthogonalLoop=1;jettySize=auto;html=1;" edge="1" parent="1" source="5cXX5zXWG6Wzpbm8b1YB-4" target="5cXX5zXWG6Wzpbm8b1YB-8">
          <mxGeometry relative="1" as="geometry" />
        </mxCell>
        <mxCell id="5cXX5zXWG6Wzpbm8b1YB-14" value="Yes" style="edgeLabel;html=1;align=center;verticalAlign=middle;resizable=0;points=[];" vertex="1" connectable="0" parent="5cXX5zXWG6Wzpbm8b1YB-9">
          <mxGeometry x="-0.3" relative="1" as="geometry">
            <mxPoint as="offset" />
          </mxGeometry>
        </mxCell>
        <mxCell id="5cXX5zXWG6Wzpbm8b1YB-4" value="打开成功？" style="strokeWidth=2;html=1;shape=mxgraph.flowchart.decision;whiteSpace=wrap;" vertex="1" parent="1">
          <mxGeometry x="330" y="250" width="100" height="70" as="geometry" />
        </mxCell>
        <mxCell id="5cXX5zXWG6Wzpbm8b1YB-11" value="" style="edgeStyle=orthogonalEdgeStyle;rounded=0;orthogonalLoop=1;jettySize=auto;html=1;" edge="1" parent="1" source="5cXX5zXWG6Wzpbm8b1YB-8" target="5cXX5zXWG6Wzpbm8b1YB-10">
          <mxGeometry relative="1" as="geometry" />
        </mxCell>
        <mxCell id="5cXX5zXWG6Wzpbm8b1YB-8" value="查询存储帧数" style="rounded=1;whiteSpace=wrap;html=1;absoluteArcSize=1;arcSize=14;strokeWidth=2;" vertex="1" parent="1">
          <mxGeometry x="330" y="360" width="100" height="40" as="geometry" />
        </mxCell>
        <mxCell id="5cXX5zXWG6Wzpbm8b1YB-13" value="" style="edgeStyle=orthogonalEdgeStyle;rounded=0;orthogonalLoop=1;jettySize=auto;html=1;" edge="1" parent="1" source="5cXX5zXWG6Wzpbm8b1YB-10" target="5cXX5zXWG6Wzpbm8b1YB-12">
          <mxGeometry relative="1" as="geometry" />
        </mxCell>
        <mxCell id="5cXX5zXWG6Wzpbm8b1YB-10" value="读取全部数据" style="rounded=1;whiteSpace=wrap;html=1;absoluteArcSize=1;arcSize=14;strokeWidth=2;" vertex="1" parent="1">
          <mxGeometry x="330" y="440" width="100" height="40" as="geometry" />
        </mxCell>
        <mxCell id="5cXX5zXWG6Wzpbm8b1YB-12" value="清空数据" style="rounded=1;whiteSpace=wrap;html=1;absoluteArcSize=1;arcSize=14;strokeWidth=2;" vertex="1" parent="1">
          <mxGeometry x="330" y="520" width="100" height="40" as="geometry" />
        </mxCell>
        <mxCell id="5cXX5zXWG6Wzpbm8b1YB-17" value="" style="edgeStyle=orthogonalEdgeStyle;rounded=0;orthogonalLoop=1;jettySize=auto;html=1;" edge="1" parent="1" source="5cXX5zXWG6Wzpbm8b1YB-15">
          <mxGeometry relative="1" as="geometry">
            <mxPoint x="590" y="140" as="targetPoint" />
          </mxGeometry>
        </mxCell>
        <mxCell id="5cXX5zXWG6Wzpbm8b1YB-15" value="Actor" style="shape=umlActor;verticalLabelPosition=bottom;verticalAlign=top;html=1;" vertex="1" parent="1">
          <mxGeometry x="490" y="110" width="30" height="60" as="geometry" />
        </mxCell>
        <mxCell id="5cXX5zXWG6Wzpbm8b1YB-18" value="读取数据" style="ellipse;whiteSpace=wrap;html=1;" vertex="1" parent="1">
          <mxGeometry x="590" y="105" width="140" height="70" as="geometry" />
        </mxCell>
        <mxCell id="5cXX5zXWG6Wzpbm8b1YB-19" value="设置参数" style="ellipse;whiteSpace=wrap;html=1;" vertex="1" parent="1">
          <mxGeometry x="590" y="210" width="140" height="70" as="geometry" />
        </mxCell>
        <mxCell id="5cXX5zXWG6Wzpbm8b1YB-20" value="" style="endArrow=classic;html=1;rounded=0;entryX=0;entryY=0.4;entryDx=0;entryDy=0;entryPerimeter=0;" edge="1" parent="1" target="5cXX5zXWG6Wzpbm8b1YB-19">
          <mxGeometry width="50" height="50" relative="1" as="geometry">
            <mxPoint x="530" y="160" as="sourcePoint" />
            <mxPoint x="580" y="270" as="targetPoint" />
          </mxGeometry>
        </mxCell>
      </root>
    </mxGraphModel>
  </diagram>
</mxfile>
